# xmcd
#
# Track frame offsets: 
#        150
#        17828
#        35675
#        51035
#        64040
#        80582
#        98758
#        116739
#        134754
#        151165
#        166720
#        181014
#        197208
#
# Disc length: 2881 seconds
#
# Revision: 2
# Processed by: cddbd v1.5.2PL0 Copyright (c) Steve Scherf et al.
# Submitted via: ExactAudioCopy v0.99pb4
#
DISCID=a80b3f0d
DTITLE=Maciel Melo - Nascente
DYEAR=2007
DGENRE=Country
TTITLE0=Chama Eu
TTITLE1=Vai Melhorar
TTITLE2=Nascente - Part. Esp. - Maestro Spok
TTITLE3=Brasil Pernambucano
TTITLE4=Meu Mundo Inteiro
TTITLE5=Sob Um Céu Azul
TTITLE6=Forró De Seu Vavá
TTITLE7=Não Mereço Você
TTITLE8=No Batente Da Janela - Part. Esp. - Nando Cordel
TTITLE9=Vamos Contar Carneirinhos
TTITLE10=Gavião Carcará
TTITLE11=Onde O Vento Não Faz A Curva - Part. Esp. - João Neto
TTITLE12=João E Duvê
EXTD=
EXTT0=
EXTT1=
EXTT2=
EXTT3=
EXTT4=
EXTT5=
EXTT6=
EXTT7=
EXTT8=
EXTT9=
EXTT10=
EXTT11=
EXTT12=
PLAYORDER=
